<?xml version="1.0" encoding="utf-8"?>
<!-- Generator: Adobe Illustrator 21.0.0, SVG Export Plug-In . SVG Version: 6.00 Build 0)  -->
<svg version="1.0" id="Layer_1" xmlns="http://www.w3.org/2000/svg" xmlns:xlink="http://www.w3.org/1999/xlink" x="0px" y="0px"
	 viewBox="0 0 17.3 15.3" style="enable-background:new 0 0 17.3 15.3;" xml:space="preserve">
<style type="text/css">
	.st0{fill:#FFFFFF;}
</style>
<g>
	<g>
		<path class="st0" d="M10.7,12.2c-1.6,0-3-1.3-3-3c0-1.6,1.3-3,3-3s3,1.3,3,3C13.7,10.9,12.4,12.2,10.7,12.2L10.7,12.2z M10.7,5.2
			c-2.2,0-4,1.8-4,4s1.8,4,4,4s4-1.8,4-4S12.9,5.2,10.7,5.2L10.7,5.2z"/>
		<polygon class="st0" points="1.1,6.4 3.3,6.4 3.3,7.5 1.1,7.5 1.1,6.4 		"/>
		<polygon class="st0" points="1.1,11 3.3,11 3.3,12 1.1,12 1.1,11 		"/>
		<polygon class="st0" points="0,8.7 3.3,8.7 3.3,9.7 0,9.7 0,8.7 		"/>
		<path class="st0" d="M10.7,14.3c-2.8,0-5.1-2.3-5.1-5.1s2.3-5.1,5.1-5.1s5.1,2.3,5.1,5.1S13.5,14.3,10.7,14.3L10.7,14.3z
			 M10.3,2.5h0.9v0.6c-0.2,0-0.3,0-0.5,0c-0.2,0-0.3,0-0.5,0V2.5L10.3,2.5L10.3,2.5z M9.7,1h2.2v0.5H9.7V1L9.7,1z M16.1,5.1l0.5,0.5
			l0.7-0.7l-1.7-1.7l-0.7,0.7l0.5,0.5l-0.4,0.4c-0.8-0.7-1.7-1.2-2.7-1.5V2.5h0.6V0H8.6v2.5h0.6v0.8C6.6,4,4.6,6.4,4.6,9.2
			c0,3.4,2.7,6.1,6.1,6.1c3.4,0,6.1-2.7,6.1-6.1c0-1.4-0.5-2.6-1.2-3.7L16.1,5.1L16.1,5.1z"/>
		<polygon class="st0" points="11.1,9.6 10.4,8.9 11.6,7.6 12.4,8.3 11.1,9.6 		"/>
	</g>
</g>
</svg>
